<mxfile host="app.diagrams.net" modified="2023-11-06T00:26:10.110Z" agent="Mozilla/5.0 (Windows NT 10.0; Win64; x64) AppleWebKit/537.36 (KHTML, like Gecko) Chrome/118.0.0.0 Safari/537.36" etag="RGglqXCXH1aJQBFWApyy" version="22.0.8" type="github">
  <diagram name="페이지-1" id="8cbrbG8ZkDFbgPNMpY25">
    <mxGraphModel dx="1259" dy="672" grid="1" gridSize="10" guides="1" tooltips="1" connect="1" arrows="1" fold="1" page="1" pageScale="1" pageWidth="827" pageHeight="1169" math="0" shadow="0">
      <root>
        <mxCell id="0" />
        <mxCell id="1" parent="0" />
      </root>
    </mxGraphModel>
  </diagram>
</mxfile>
